<svg width="1024" height="1024" viewBox="0 0 1024 1024" fill="none" xmlns="http://www.w3.org/2000/svg">
<path d="M16.0745 199.819L101.091 852.487C101.744 857.499 106.882 860.607 111.625 858.86L403.665 751.266C406.762 750.125 408.819 747.175 408.819 743.875L408.819 170.49C408.819 165.907 404.922 162.292 400.352 162.636L23.2951 190.947C18.789 191.285 15.4908 195.338 16.0745 199.819Z" fill="#41ABF2"/>
<path d="M776.602 741.541L465.369 858.759C459.924 860.81 454.108 856.786 454.108 850.967L454.108 248.018C454.108 243.42 457.836 239.693 462.434 239.693H648.765C652.565 239.693 655.883 242.265 656.829 245.945L781.731 731.676C782.79 735.792 780.579 740.044 776.602 741.541Z" fill="#41ABF2"/>
<path d="M831.818 729.013L996.775 690.449C1002.31 689.155 1004.95 682.819 1001.97 677.979L855.039 439.158C852.63 435.242 847.502 434.02 843.585 436.43L762.809 486.127C759.654 488.068 758.161 491.859 759.145 495.43L821.896 723.118C823.084 727.428 827.465 730.031 831.818 729.013Z" fill="#41ABF2"/>
</svg>
