<svg width="512" height="512" viewBox="0 0 512 512" fill="none" xmlns="http://www.w3.org/2000/svg">
<path d="M4.54568 97.2061L47.7213 428.662C48.0529 431.208 50.662 432.786 53.0706 431.899L201.383 377.258C202.955 376.678 204 375.18 204 373.504L204 82.3116C204 79.9844 202.021 78.1486 199.701 78.3228L8.21267 92.7007C5.92421 92.8726 4.24925 94.9305 4.54568 97.2061Z" fill="#54575F"/>
<path d="M390.778 372.317L232.719 431.846C229.953 432.888 227 430.844 227 427.889L227 121.683C227 119.347 228.893 117.454 231.228 117.454H325.856C327.786 117.454 329.471 118.761 329.951 120.63L393.383 367.307C393.92 369.397 392.798 371.557 390.778 372.317Z" fill="#54575F"/>
<path d="M428.266 365.016L502.703 346.434C505.478 345.741 506.779 342.551 505.28 340.116L441.594 236.601C440.37 234.612 437.766 233.992 435.777 235.216L399.085 257.79C397.502 258.764 396.74 260.658 397.209 262.458L423.15 361.98C423.735 364.224 426.017 365.578 428.266 365.016Z" fill="#54575F"/>
</svg>
